<svg width="40" height="24" viewBox="0 0 40 24" fill="none" xmlns="http://www.w3.org/2000/svg">
<path d="M2.75016 4.33333H37.2502C37.7585 4.33333 38.246 4.1314 38.6054 3.77195C38.9649 3.41251 39.1668 2.925 39.1668 2.41667C39.1668 1.90833 38.9649 1.42082 38.6054 1.06138C38.246 0.701934 37.7585 0.5 37.2502 0.5H2.75016C2.24183 0.5 1.75432 0.701934 1.39487 1.06138C1.03543 1.42082 0.833496 1.90833 0.833496 2.41667C0.833496 2.925 1.03543 3.41251 1.39487 3.77195C1.75432 4.1314 2.24183 4.33333 2.75016 4.33333ZM37.2502 19.6667H2.75016C2.24183 19.6667 1.75432 19.8686 1.39487 20.228C1.03543 20.5875 0.833496 21.075 0.833496 21.5833C0.833496 22.0917 1.03543 22.5792 1.39487 22.9386C1.75432 23.2981 2.24183 23.5 2.75016 23.5H37.2502C37.7585 23.5 38.246 23.2981 38.6054 22.9386C38.9649 22.5792 39.1668 22.0917 39.1668 21.5833C39.1668 21.075 38.9649 20.5875 38.6054 20.228C38.246 19.8686 37.7585 19.6667 37.2502 19.6667ZM37.2502 10.0833H2.75016C2.24183 10.0833 1.75432 10.2853 1.39487 10.6447C1.03543 11.0042 0.833496 11.4917 0.833496 12C0.833496 12.5083 1.03543 12.9958 1.39487 13.3553C1.75432 13.7147 2.24183 13.9167 2.75016 13.9167H37.2502C37.7585 13.9167 38.246 13.7147 38.6054 13.3553C38.9649 12.9958 39.1668 12.5083 39.1668 12C39.1668 11.4917 38.9649 11.0042 38.6054 10.6447C38.246 10.2853 37.7585 10.0833 37.2502 10.0833Z" fill="white"/>
</svg>
