<svg width="25" height="30" viewBox="0 0 25 30" fill="none" xmlns="http://www.w3.org/2000/svg">
<path d="M22.7142 11.0805L16.2996 6.92896C16.873 7.97376 17.6415 8.90379 18.5652 9.66364C20.6158 11.4485 21.6829 13.4273 21.6471 15.3903C21.6192 17.1118 20.7432 18.7146 19.1187 20.0285C17.9361 20.9507 16.9685 22.1142 16.2837 23.4439L22.6544 19.4864C24.9997 18.0181 25.7044 14.9351 24.2232 12.6041C23.837 11.9947 23.3194 11.4762 22.7142 11.0805Z" fill="#EA0A0A"/>
<path d="M17.3833 18.8808C18.6574 17.8518 19.3423 16.6329 19.3742 15.3625C19.402 13.8507 18.5101 12.2677 16.798 10.7796C15.1655 9.35885 14.1262 7.87476 13.7042 6.37088C13.6365 6.13738 13.5887 5.89992 13.5569 5.66247L7.30555 1.62178C3.03317 -1.14852 -1.7887 4.26149 1.47631 8.14783L4.69753 11.9788C6.31012 13.9021 6.21855 16.7199 4.47854 18.5325L1.29316 21.8727C-2.36604 25.6839 2.44785 31.5569 6.94322 28.7668L13.4732 24.7103C13.8794 22.9333 14.9544 20.8477 17.3833 18.8808Z" fill="#EA0A0A"/>
</svg>
