<svg width="40" height="40" viewBox="0 0 40 40" fill="none" xmlns="http://www.w3.org/2000/svg">
<path d="M17.813 12.9592C16.563 12.237 15 13.1391 15 14.5827V25.417C15 26.8607 16.563 27.7628 17.813 27.0405L28.1252 21.0823C28.512 20.859 28.75 20.4462 28.75 19.9999C28.75 19.5535 28.512 19.1409 28.1252 18.9176L17.813 12.9592ZM0 20C0 8.9543 8.9543 0 20 0C31.0457 0 40 8.9543 40 20C40 31.0457 31.0457 40 20 40C8.9543 40 0 31.0457 0 20ZM20 2.5C10.335 2.5 2.5 10.335 2.5 20C2.5 29.665 10.335 37.5 20 37.5C29.665 37.5 37.5 29.665 37.5 20C37.5 10.335 29.665 2.5 20 2.5Z" fill="white"/>
</svg>
