<svg width="23" height="23" viewBox="0 0 23 23" fill="none" xmlns="http://www.w3.org/2000/svg">
<path d="M20.433 9.65222H6.79298L12.7234 3.73976C13.0618 3.40136 13.2519 2.94239 13.2519 2.46382C13.2519 1.98525 13.0618 1.52628 12.7234 1.18788C12.385 0.849475 11.926 0.659363 11.4475 0.659363C10.9689 0.659363 10.5099 0.849475 10.1715 1.18788L1.18603 10.1734C1.02242 10.3443 0.894167 10.5458 0.808635 10.7664C0.628892 11.204 0.628892 11.6947 0.808635 12.1322C0.894167 12.3528 1.02242 12.5544 1.18603 12.7253L10.1715 21.7108C10.3386 21.8792 10.5374 22.0129 10.7564 22.1041C10.9753 22.1954 11.2102 22.2424 11.4475 22.2424C11.6847 22.2424 11.9196 22.1954 12.1386 22.1041C12.3576 22.0129 12.5564 21.8792 12.7234 21.7108C12.8919 21.5437 13.0256 21.3449 13.1168 21.126C13.208 20.907 13.255 20.6721 13.255 20.4348C13.255 20.1976 13.208 19.9627 13.1168 19.7437C13.0256 19.5247 12.8919 19.326 12.7234 19.1589L6.79298 13.2464H20.433C20.9096 13.2464 21.3667 13.0571 21.7037 12.7201C22.0407 12.383 22.2301 11.9259 22.2301 11.4493C22.2301 10.9727 22.0407 10.5156 21.7037 10.1786C21.3667 9.84156 20.9096 9.65222 20.433 9.65222Z" fill="#111111"/>
</svg>
