<svg width="24" height="24" viewBox="0 0 24 24" fill="none" xmlns="http://www.w3.org/2000/svg">
<path d="M14.7029 12L22.9445 3.77753C23.3055 3.41661 23.5082 2.92711 23.5082 2.4167C23.5082 1.90629 23.3055 1.41678 22.9445 1.05586C22.5836 0.694948 22.0941 0.492187 21.5837 0.492188C21.0733 0.492188 20.5838 0.694948 20.2229 1.05586L12.0004 9.29753L3.77787 1.05586C3.41696 0.694948 2.92745 0.492187 2.41704 0.492188C1.90663 0.492188 1.41712 0.694948 1.0562 1.05586C0.695289 1.41678 0.492529 1.90629 0.492529 2.4167C0.492529 2.92711 0.695289 3.41661 1.0562 3.77753L9.29787 12L1.0562 20.2225C0.876558 20.4007 0.73397 20.6127 0.636663 20.8463C0.539357 21.0798 0.489258 21.3303 0.489258 21.5834C0.489258 21.8364 0.539357 22.0869 0.636663 22.3205C0.73397 22.554 0.876558 22.766 1.0562 22.9442C1.23438 23.1238 1.44637 23.2664 1.67993 23.3637C1.9135 23.461 2.16402 23.5111 2.41704 23.5111C2.67006 23.5111 2.92058 23.461 3.15414 23.3637C3.38771 23.2664 3.59969 23.1238 3.77787 22.9442L12.0004 14.7025L20.2229 22.9442C20.4011 23.1238 20.613 23.2664 20.8466 23.3637C21.0802 23.461 21.3307 23.5111 21.5837 23.5111C21.8367 23.5111 22.0872 23.461 22.3208 23.3637C22.5544 23.2664 22.7664 23.1238 22.9445 22.9442C23.1242 22.766 23.2668 22.554 23.3641 22.3205C23.4614 22.0869 23.5115 21.8364 23.5115 21.5834C23.5115 21.3303 23.4614 21.0798 23.3641 20.8463C23.2668 20.6127 23.1242 20.4007 22.9445 20.2225L14.7029 12Z" fill="white"/>
</svg>
