<svg width="62" height="62" viewBox="0 0 62 62" fill="none" xmlns="http://www.w3.org/2000/svg">
<g opacity="0.5">
<circle cx="31" cy="31" r="31" fill="#858585"/>
<path d="M32.1075 30.7146L27.3875 35.8771C27.1392 36.1504 26.9998 36.52 26.9998 36.9052C26.9998 37.2905 27.1392 37.6601 27.3875 37.9334C27.5115 38.0701 27.659 38.1786 27.8214 38.2526C27.9839 38.3266 28.1582 38.3647 28.3342 38.3647C28.5102 38.3647 28.6845 38.3266 28.847 38.2526C29.0095 38.1786 29.1569 38.0701 29.2809 37.9334L34.9342 31.75C35.0592 31.6145 35.1584 31.4532 35.2261 31.2755C35.2938 31.0978 35.3286 30.9071 35.3286 30.7146C35.3286 30.5221 35.2938 30.3315 35.2261 30.1538C35.1584 29.9761 35.0592 29.8148 34.9342 29.6792L29.2809 23.423C29.1563 23.2878 29.0085 23.1809 28.8461 23.1083C28.6836 23.0357 28.5097 22.9989 28.3342 23C28.1587 22.9989 27.9848 23.0357 27.8223 23.1083C27.6599 23.1809 27.5121 23.2878 27.3876 23.423C27.1392 23.6962 26.9998 24.0658 26.9998 24.4511C26.9998 24.8364 27.1392 25.206 27.3876 25.4792L32.1075 30.7146Z" fill="white"/>
</g>
</svg>
