<svg width="142" height="18" viewBox="0 0 142 18" fill="none" xmlns="http://www.w3.org/2000/svg">
<g clip-path="url(#clip0_427_377)">
<path d="M133.985 0.54248H129.765V3.70958H133.985C136.521 3.70958 138.363 5.60288 138.363 8.20772C138.363 10.8126 136.521 12.7059 133.985 12.7059H129.76V3.71954H126.278V15.8754H133.99C138.634 15.8754 142 12.6412 142 8.20772C142 3.77427 138.629 0.54248 133.985 0.54248Z" fill="white"/>
<path d="M120.564 10.3772L111.673 0.54248H108.624V15.8754H112.108V6.03827L120.999 15.8754H124.048V0.54248H120.564V10.3772Z" fill="white"/>
<path d="M102.834 8.78219C102.834 11.4368 101.082 13.3649 98.6963 13.3649C96.3109 13.3649 94.5587 11.4467 94.5587 8.78219V0.397949H90.8867V8.78219C90.8867 13.3848 94.2434 16.8554 98.6963 16.8554C103.149 16.8554 106.503 13.3848 106.503 8.78219V0.397949H102.834V8.78219Z" fill="white"/>
<path d="M73.2275 16.5445H76.8971V10.1381H85.6979V6.80182H76.8971V3.73423H88.8418V0.397949H73.2275V16.5445Z" fill="white"/>
<path d="M66.6025 10.0386C68.9754 9.60818 70.4823 7.79947 70.4823 5.34639C70.4823 2.38579 68.4798 0.397949 65.5036 0.397949H53.9219V16.5445H57.5939V10.1381H62.5275L66.5199 16.5445H70.6925L66.8954 10.464C66.8078 10.3172 66.7101 10.1729 66.6025 10.0386ZM57.5939 3.73423H65.5036C66.177 3.68696 66.7627 4.19201 66.8103 4.86374C66.8153 4.92096 66.8153 4.97818 66.8103 5.03292V5.50313C66.8578 6.17238 66.3497 6.75455 65.6739 6.80182C65.6163 6.80679 65.5587 6.80679 65.5036 6.80182H57.5939V3.73423Z" fill="white"/>
<path d="M50.0386 6.42378L46.0061 3.81396C46.3666 4.47077 46.8496 5.05543 47.4304 5.53311C48.7195 6.65515 49.3903 7.89911 49.3677 9.13311C49.3502 10.2153 48.7996 11.2229 47.7783 12.0489C47.0349 12.6286 46.4266 13.3601 45.9961 14.196L50.001 11.7081C51.4753 10.7851 51.9184 8.847 50.9872 7.38162C50.7444 6.99849 50.419 6.67257 50.0386 6.42378Z" fill="#EA0A0A"/>
<path d="M46.6847 11.3274C47.4857 10.6805 47.9163 9.91422 47.9363 9.11561C47.9538 8.16523 47.3931 7.17006 46.3168 6.23461C45.2905 5.34145 44.6372 4.40849 44.3719 3.46308C44.3293 3.3163 44.2993 3.16702 44.2793 3.01775L40.3494 0.477595C37.6636 -1.26394 34.6324 2.13703 36.6849 4.58015L38.7099 6.98845C39.7237 8.19757 39.6661 9.96896 38.5722 11.1084L36.5698 13.2082C34.2694 15.6041 37.2957 19.2961 40.1216 17.5421L44.2267 14.992C44.482 13.875 45.1579 12.5638 46.6847 11.3274Z" fill="#EA0A0A"/>
<path d="M33.2987 0.397949H17.0537V3.73423H23.3415V16.5445H27.011V3.73423H33.2987V0.397949Z" fill="white"/>
<path d="M7.95731 6.64757C4.45299 6.64757 3.9774 5.97583 3.9774 5.25185C3.9774 3.73921 6.05747 3.42075 7.79961 3.42075C9.87217 3.42075 11.324 4.05766 11.5793 5.03292H15.2838C15.0886 2.05987 12.1325 0.0844727 7.79961 0.0844727C2.96866 0.0844727 0.307879 1.92055 0.307879 5.25185C0.307879 8.58316 2.51059 9.97887 7.67446 9.97887C11.4541 9.97887 11.9297 10.7924 11.9297 11.499C11.9297 13.2554 9.33901 13.5167 7.7921 13.5167C5.48426 13.5167 3.88228 12.8425 3.67953 11.8174H0C0.145179 14.8402 3.25401 16.8554 7.79961 16.8554C12.8358 16.8554 15.6092 14.9547 15.6092 11.5015C15.6092 8.04826 13.2488 6.64757 7.95731 6.64757Z" fill="white"/>
</g>
<defs>
<clipPath id="clip0_427_377">
<rect width="142" height="18" fill="white"/>
</clipPath>
</defs>
</svg>
