<svg width="211" height="27" viewBox="0 0 211 27" fill="none" xmlns="http://www.w3.org/2000/svg">
<g clip-path="url(#clip0_427_132)">
<path d="M199.091 0.813599H192.82V5.56426H199.091C202.858 5.56426 205.596 8.4042 205.596 12.3115C205.596 16.2187 202.858 19.0587 199.091 19.0587H192.812V5.57918H187.639V23.813H199.098C205.997 23.813 211 18.9616 211 12.3115C211 5.66128 205.99 0.813599 199.091 0.813599Z" fill="white"/>
<path d="M179.148 15.5656L165.936 0.813599H161.406V23.813H166.584V9.05728L179.795 23.813H184.325V0.813599H179.148V15.5656Z" fill="white"/>
<path d="M152.803 13.1734C152.803 17.1553 150.2 20.0475 146.655 20.0475C143.111 20.0475 140.507 17.1702 140.507 13.1734V0.597046H135.051V13.1734C135.051 20.0774 140.038 25.2833 146.655 25.2833C153.272 25.2833 158.256 20.0774 158.256 13.1734V0.597046H152.803V13.1734Z" fill="white"/>
<path d="M108.811 24.8168H114.263V15.2073H127.34V10.2029H114.263V5.60147H132.012V0.597046H108.811V24.8168Z" fill="white"/>
<path d="M98.9654 15.058C102.491 14.4124 104.73 11.6993 104.73 8.01971C104.73 3.5788 101.755 0.597046 97.3326 0.597046H80.123V24.8168H85.5794V15.2073H92.9102L98.8426 24.8168H105.043L99.4006 15.6961C99.2704 15.476 99.1253 15.2595 98.9654 15.058ZM85.5794 5.60147H97.3326C98.3331 5.53056 99.2034 6.28813 99.2741 7.29573C99.2815 7.38157 99.2815 7.4674 99.2741 7.5495V8.25482C99.3448 9.25869 98.5897 10.1319 97.5855 10.2029C97.5 10.2103 97.4144 10.2103 97.3326 10.2029H85.5794V5.60147Z" fill="white"/>
<path d="M74.3535 9.63567L68.3616 5.72095C68.8971 6.70616 69.615 7.58315 70.4779 8.29966C72.3934 9.98273 73.3901 11.8487 73.3567 13.6997C73.3306 15.323 72.5124 16.8344 70.9949 18.0734C69.8902 18.9429 68.9864 20.0401 68.3467 21.294L74.2977 17.5621C76.4884 16.1776 77.1467 13.2705 75.7631 11.0724C75.4023 10.4977 74.9188 10.0089 74.3535 9.63567Z" fill="#EA0A0A"/>
<path d="M69.3698 16.9912C70.56 16.0209 71.1997 14.8715 71.2295 13.6735C71.2555 12.248 70.4223 10.7552 68.823 9.35204C67.2981 8.0123 66.3273 6.61285 65.9331 5.19475C65.8698 4.97457 65.8252 4.75065 65.7955 4.52674L59.956 0.716514C55.9652 -1.89579 51.461 3.20566 54.5109 6.87035L57.5198 10.4828C59.0262 12.2965 58.9407 14.9536 57.3153 16.6628L54.3398 19.8124C50.9217 23.4062 55.4184 28.9443 59.6176 26.3133L65.7173 22.4882C66.0967 20.8126 67.101 18.8459 69.3698 16.9912Z" fill="#EA0A0A"/>
<path d="M49.4786 0.597046H25.3398V5.60147H34.6829V24.8168H40.1355V5.60147H49.4786V0.597046Z" fill="white"/>
<path d="M11.8239 9.97147C6.61676 9.97147 5.91008 8.96387 5.91008 7.8779C5.91008 5.60893 9.00088 5.13125 11.5896 5.13125C14.6692 5.13125 16.8264 6.08661 17.2058 7.5495H22.7105C22.4204 3.08993 18.0278 0.126831 11.5896 0.126831C4.41118 0.126831 0.457483 2.88094 0.457483 7.8779C0.457483 12.8749 3.73053 14.9684 11.4036 14.9684C17.0198 14.9684 17.7265 16.1888 17.7265 17.2486C17.7265 19.8833 13.877 20.2751 11.5784 20.2751C8.14915 20.2751 5.76875 19.2638 5.46748 17.7263H0C0.215724 22.2605 4.83518 25.2833 11.5896 25.2833C19.0729 25.2833 23.194 22.4321 23.194 17.2523C23.194 12.0725 19.6866 9.97147 11.8239 9.97147Z" fill="white"/>
</g>
<defs>
<clipPath id="clip0_427_132">
<rect width="211" height="27" fill="white"/>
</clipPath>
</defs>
</svg>
