<svg width="487" height="61" viewBox="0 0 487 61" fill="none" xmlns="http://www.w3.org/2000/svg">
<g clip-path="url(#clip0_427_37)">
<path d="M459.512 1.83801H445.039V12.571H459.512C468.208 12.571 474.527 18.9872 474.527 27.8147C474.527 36.6422 468.208 43.0583 459.512 43.0583H445.022V12.6047H433.081V53.7997H459.529C475.454 53.7997 487 42.8391 487 27.8147C487 12.7902 475.437 1.83801 459.512 1.83801Z" fill="white"/>
<path d="M413.482 35.1667L382.99 1.83801H372.534V53.7997H384.484V20.4626L414.976 53.7997H425.432V1.83801H413.482V35.1667Z" fill="white"/>
<path d="M352.678 29.7623C352.678 38.7584 346.669 45.2926 338.488 45.2926C330.307 45.2926 324.298 38.7921 324.298 29.7623V1.349H311.704V29.7623C311.704 45.3601 323.216 57.1216 338.488 57.1216C353.76 57.1216 365.263 45.3601 365.263 29.7623V1.349H352.678V29.7623Z" fill="white"/>
<path d="M251.14 56.0677H263.725V34.3573H293.908V23.051H263.725V12.6553H304.69V1.349H251.14V56.0677Z" fill="white"/>
<path d="M228.417 34.02C236.555 32.5614 241.723 26.4319 241.723 18.1187C241.723 8.08556 234.855 1.349 224.648 1.349H184.928V56.0677H197.521V34.3573H214.441L228.134 56.0677H242.444L229.421 35.4618C229.121 34.9643 228.786 34.4753 228.417 34.02ZM197.521 12.6553H224.648C226.958 12.4951 228.966 14.2066 229.129 16.4831C229.147 16.677 229.147 16.8709 229.129 17.0564V18.6499C229.293 20.9179 227.55 22.8908 225.232 23.051C225.035 23.0679 224.837 23.0679 224.648 23.051H197.521V12.6553Z" fill="white"/>
<path d="M171.613 21.7694L157.783 12.925C159.02 15.1509 160.676 17.1322 162.668 18.751C167.089 22.5535 169.39 26.7691 169.312 30.951C169.252 34.6186 167.364 38.0333 163.861 40.8324C161.312 42.7969 159.226 45.2757 157.749 48.1086L171.484 39.6774C176.541 36.5494 178.06 29.9814 174.867 25.0154C174.034 23.717 172.918 22.6125 171.613 21.7694Z" fill="#EA0A0A"/>
<path d="M160.11 38.3874C162.857 36.1953 164.333 33.5984 164.402 30.892C164.462 27.6713 162.539 24.2988 158.848 21.1286C155.328 18.1018 153.088 14.9401 152.178 11.7362C152.032 11.2388 151.929 10.7329 151.86 10.2271L138.382 1.61876C129.171 -4.28311 118.775 7.2424 125.815 15.5219L132.76 23.6833C136.236 27.7809 136.039 33.7839 132.287 37.6454L125.42 44.7614C117.531 52.8807 127.909 65.3926 137.601 59.4486L151.68 50.8066C152.556 47.021 154.873 42.5777 160.11 38.3874Z" fill="#EA0A0A"/>
<path d="M114.2 1.349H58.4863V12.6553H80.0507V56.0677H92.6356V12.6553H114.2V1.349Z" fill="white"/>
<path d="M27.2902 22.5282C15.2719 22.5282 13.6408 20.2518 13.6408 17.7983C13.6408 12.6721 20.7745 11.5929 26.7494 11.5929C33.8574 11.5929 38.8364 13.7513 39.712 17.0564H52.4171C51.7475 6.98102 41.6092 0.286621 26.7494 0.286621C10.1812 0.286621 1.0559 6.50887 1.0559 17.7983C1.0559 29.0877 8.61028 33.8176 26.3202 33.8176C39.2828 33.8176 40.9138 36.5747 40.9138 38.9691C40.9138 44.9216 32.0289 45.8069 26.7236 45.8069C18.8087 45.8069 13.3146 43.522 12.6192 40.0483H0C0.497902 50.2923 11.1599 57.1216 26.7494 57.1216C44.0214 57.1216 53.5331 50.6801 53.5331 38.9776C53.5331 27.275 45.4379 22.5282 27.2902 22.5282Z" fill="white"/>
</g>
<defs>
<clipPath id="clip0_427_37">
<rect width="487" height="61" fill="white"/>
</clipPath>
</defs>
</svg>
